<?xml version="1.0" encoding="iso-8859-1"?>
<!-- Generator: Adobe Illustrator 19.0.0, SVG Export Plug-In . SVG Version: 6.00 Build 0)  -->
<svg version="1.1" id="Layer_1" xmlns="http://www.w3.org/2000/svg" xmlns:xlink="http://www.w3.org/1999/xlink" x="0px" y="0px"
	 viewBox="0 0 512.001 512.001" style="enable-background:new 0 0 512.001 512.001;" xml:space="preserve">
<path style="fill:#38CED9;" d="M478.294,185.104L465.866,38.449c-1.372-16.182-11.645-29.837-26.814-35.637
	c-15.169-5.799-31.932-2.485-43.752,8.655L288.194,112.415c-10.569,9.962-15.197,24.417-12.378,38.665
	c2.819,14.248,12.602,25.851,26.167,31.039l119.532,45.707c4.901,1.874,9.993,2.796,15.045,2.796c8.933,0,17.744-2.88,25.157-8.457
	C473.323,213.429,479.52,199.576,478.294,185.104z"/>
<path style="fill:#0EBEC7;" d="M294.697,163.658c-2.819-14.248,1.809-28.703,12.378-38.665L414.181,24.045
	c11.323-10.672,27.181-14.138,41.831-9.313c-4.456-5.211-10.221-9.345-16.96-11.921c-15.169-5.799-31.932-2.485-43.752,8.655
	L288.194,112.414c-10.569,9.962-15.197,24.417-12.378,38.665c2.819,14.248,12.602,25.851,26.167,31.039l2.065,0.79
	C299.4,177.513,296.136,170.935,294.697,163.658z"/>
<path style="fill:#64DDE3;" d="M406.599,137.509c-2.742-6.138-7.712-10.84-13.99-13.241c-12.961-4.957-27.54,1.556-32.497,14.519
	L304.681,283.75c-1.655,4.328,0.512,9.178,4.84,10.833l31.344,11.985c0.966,0.37,1.982,0.554,2.996,0.554
	c1.168,0,2.335-0.244,3.423-0.73c2.031-0.908,3.619-2.585,4.414-4.663l55.431-144.965
	C409.528,150.485,409.341,143.647,406.599,137.509z"/>
<path style="fill:#FF7161;" d="M264.453,161.639l-35.1-138.229c-2.851-11.227-14.263-18.017-25.49-15.166
	c-11.227,2.851-18.017,14.263-15.167,25.49l30.971,121.968l-36.591,9.291l-30.97-121.968c-2.851-11.227-14.263-18.017-25.49-15.167
	c-11.227,2.851-18.017,14.263-15.166,25.49l30.971,121.968l-36.591,9.291L74.861,62.64c-2.851-11.227-14.263-18.017-25.49-15.167
	l0,0c-11.227,2.851-18.017,14.263-15.167,25.49l35.1,138.23c4.562,17.962,22.821,28.827,40.783,24.266l48.786-12.389l25.809,101.64
	l32.525-8.259l-25.809-101.64l48.787-12.389C258.15,197.862,269.014,179.603,264.453,161.639z"/>
<g>
	<path style="fill:#FF6C5C;" d="M89.309,207.791l-35.1-138.23c-2.092-8.24,1.021-16.566,7.259-21.548
		c-3.763-1.322-7.94-1.595-12.096-0.539l0,0c-11.227,2.851-18.017,14.263-15.167,25.49l35.1,138.23
		c4.562,17.962,22.821,28.827,40.783,24.266l9.599-2.437C105.549,232.118,92.983,222.262,89.309,207.791z"/>
	<path style="fill:#FF6C5C;" d="M405.13,286.072c-1.595-1.866-3.925-2.94-6.379-2.94H130.297c-2.454,0-4.785,1.074-6.379,2.94
		c-1.594,1.867-2.291,4.336-1.908,6.76l29.077,183.777C154.333,497.116,171.756,512,192.518,512H336.53
		c20.762,0,38.186-14.884,41.43-35.391l29.078-183.777C407.421,290.409,406.723,287.939,405.13,286.072z"/>
</g>
<path style="fill:#FF4A36;" d="M176.255,476.61l-29.077-183.777c-0.384-2.423,0.314-4.894,1.908-6.76
	c1.594-1.866,3.925-2.94,6.379-2.94h-25.168c-2.454,0-4.785,1.074-6.379,2.94c-1.594,1.867-2.291,4.336-1.908,6.76l29.077,183.777
	c3.246,20.506,20.669,35.391,41.431,35.391h25.168C196.924,512,179.5,497.117,176.255,476.61z"/>
<path style="fill:#807A72;" d="M264.524,473.987c-106.394,0-192.952-86.558-192.952-192.952c0-4.633,3.756-8.389,8.389-8.389h20.973
	c4.633,0,8.389,3.756,8.389,8.389c0,4.633-3.756,8.389-8.389,8.389H88.548c4.392,93.265,81.644,167.784,175.976,167.784
	c94.331,0,171.586-74.519,175.976-167.784h-12.387c-4.633,0-8.389-3.756-8.389-8.389c0-4.633,3.756-8.389,8.389-8.389h20.973
	c4.633,0,8.389,3.756,8.389,8.389C457.476,387.429,370.918,473.987,264.524,473.987z"/>
<path style="fill:#FFD042;" d="M407.141,247.478H121.907c-13.878,0-25.168,11.29-25.168,25.168v16.778
	c0,13.878,11.29,25.168,25.168,25.168h285.233c13.877,0,25.168-11.29,25.168-25.168v-16.778
	C432.308,258.768,421.017,247.478,407.141,247.478z"/>
<path style="fill:#FFC412;" d="M117.713,289.424v-16.778c0-13.878,11.29-25.168,25.168-25.168h-20.973
	c-13.878,0-25.168,11.29-25.168,25.168v16.778c0,13.878,11.29,25.168,25.168,25.168h20.973
	C129.003,314.592,117.713,303.302,117.713,289.424z"/>
<g>
</g>
<g>
</g>
<g>
</g>
<g>
</g>
<g>
</g>
<g>
</g>
<g>
</g>
<g>
</g>
<g>
</g>
<g>
</g>
<g>
</g>
<g>
</g>
<g>
</g>
<g>
</g>
<g>
</g>
</svg>
