<svg xmlns="http://www.w3.org/2000/svg" width="1277" height="294.92" viewBox="0 0 1277 294.92">
  <g id="Group_1" data-name="Group 1" transform="translate(-300 -331)">
    <path id="Icon_awesome-folder" data-name="Icon awesome-folder" d="M24.582,7.891H14.41L11.02,4.5H2.543A2.543,2.543,0,0,0,0,7.043V22.3a2.543,2.543,0,0,0,2.543,2.543H24.582A2.543,2.543,0,0,0,27.125,22.3V10.434A2.543,2.543,0,0,0,24.582,7.891Z" transform="translate(301 366.5)" fill="none" stroke="#fff" stroke-width="2"/>
    <path id="Icon_awesome-folder-2" data-name="Icon awesome-folder" d="M24.582,7.891H14.41L11.02,4.5H2.543A2.543,2.543,0,0,0,0,7.043V22.3a2.543,2.543,0,0,0,2.543,2.543H24.582A2.543,2.543,0,0,0,27.125,22.3V10.434A2.543,2.543,0,0,0,24.582,7.891Z" transform="translate(598 366.5)" fill="none" stroke="#fff" stroke-width="2"/>
    <path id="Icon_awesome-folder-3" data-name="Icon awesome-folder" d="M24.582,7.891H14.41L11.02,4.5H2.543A2.543,2.543,0,0,0,0,7.043V22.3a2.543,2.543,0,0,0,2.543,2.543H24.582A2.543,2.543,0,0,0,27.125,22.3V10.434A2.543,2.543,0,0,0,24.582,7.891Z" transform="translate(895 366.5)" fill="none" stroke="#fff" stroke-width="2"/>
    <path id="Icon_awesome-folder-4" data-name="Icon awesome-folder" d="M24.582,7.891H14.41L11.02,4.5H2.543A2.543,2.543,0,0,0,0,7.043V22.3a2.543,2.543,0,0,0,2.543,2.543H24.582A2.543,2.543,0,0,0,27.125,22.3V10.434A2.543,2.543,0,0,0,24.582,7.891Z" transform="translate(1192 366.5)" fill="none" stroke="#fff" stroke-width="2"/>
    <path id="Icon_awesome-folder-5" data-name="Icon awesome-folder" d="M24.582,7.891H14.41L11.02,4.5H2.543A2.543,2.543,0,0,0,0,7.043V22.3a2.543,2.543,0,0,0,2.543,2.543H24.582A2.543,2.543,0,0,0,27.125,22.3V10.434A2.543,2.543,0,0,0,24.582,7.891Z" transform="translate(301 466.712)" fill="none" stroke="#fff" stroke-width="2"/>
    <path id="Icon_awesome-folder-6" data-name="Icon awesome-folder" d="M24.582,7.891H14.41L11.02,4.5H2.543A2.543,2.543,0,0,0,0,7.043V22.3a2.543,2.543,0,0,0,2.543,2.543H24.582A2.543,2.543,0,0,0,27.125,22.3V10.434A2.543,2.543,0,0,0,24.582,7.891Z" transform="translate(598 466.712)" fill="none" stroke="#fff" stroke-width="2"/>
    <path id="Icon_awesome-folder-7" data-name="Icon awesome-folder" d="M24.582,7.891H14.41L11.02,4.5H2.543A2.543,2.543,0,0,0,0,7.043V22.3a2.543,2.543,0,0,0,2.543,2.543H24.582A2.543,2.543,0,0,0,27.125,22.3V10.434A2.543,2.543,0,0,0,24.582,7.891Z" transform="translate(895 466.712)" fill="none" stroke="#fff" stroke-width="2"/>
    <path id="Icon_awesome-folder-8" data-name="Icon awesome-folder" d="M24.582,7.891H14.41L11.02,4.5H2.543A2.543,2.543,0,0,0,0,7.043V22.3a2.543,2.543,0,0,0,2.543,2.543H24.582A2.543,2.543,0,0,0,27.125,22.3V10.434A2.543,2.543,0,0,0,24.582,7.891Z" transform="translate(1192 466.712)" fill="none" stroke="#fff" stroke-width="2"/>
    <path id="Icon_awesome-folder-9" data-name="Icon awesome-folder" d="M24.582,7.891H14.41L11.02,4.5H2.543A2.543,2.543,0,0,0,0,7.043V22.3a2.543,2.543,0,0,0,2.543,2.543H24.582A2.543,2.543,0,0,0,27.125,22.3V10.434A2.543,2.543,0,0,0,24.582,7.891Z" transform="translate(301 399.653)" fill="none" stroke="#fff" stroke-width="2"/>
    <path id="Icon_awesome-folder-10" data-name="Icon awesome-folder" d="M24.582,7.891H14.41L11.02,4.5H2.543A2.543,2.543,0,0,0,0,7.043V22.3a2.543,2.543,0,0,0,2.543,2.543H24.582A2.543,2.543,0,0,0,27.125,22.3V10.434A2.543,2.543,0,0,0,24.582,7.891Z" transform="translate(598 399.653)" fill="none" stroke="#fff" stroke-width="2"/>
    <path id="Icon_awesome-folder-11" data-name="Icon awesome-folder" d="M24.582,7.891H14.41L11.02,4.5H2.543A2.543,2.543,0,0,0,0,7.043V22.3a2.543,2.543,0,0,0,2.543,2.543H24.582A2.543,2.543,0,0,0,27.125,22.3V10.434A2.543,2.543,0,0,0,24.582,7.891Z" transform="translate(895 399.653)" fill="none" stroke="#fff" stroke-width="2"/>
    <path id="Icon_awesome-folder-12" data-name="Icon awesome-folder" d="M24.582,7.891H14.41L11.02,4.5H2.543A2.543,2.543,0,0,0,0,7.043V22.3a2.543,2.543,0,0,0,2.543,2.543H24.582A2.543,2.543,0,0,0,27.125,22.3V10.434A2.543,2.543,0,0,0,24.582,7.891Z" transform="translate(1192 399.653)" fill="none" stroke="#fff" stroke-width="2"/>
    <path id="Icon_awesome-folder-13" data-name="Icon awesome-folder" d="M24.582,7.891H14.41L11.02,4.5H2.543A2.543,2.543,0,0,0,0,7.043V22.3a2.543,2.543,0,0,0,2.543,2.543H24.582A2.543,2.543,0,0,0,27.125,22.3V10.434A2.543,2.543,0,0,0,24.582,7.891Z" transform="translate(301 499.865)" fill="none" stroke="#fff" stroke-width="2"/>
    <path id="Icon_awesome-folder-14" data-name="Icon awesome-folder" d="M24.582,7.891H14.41L11.02,4.5H2.543A2.543,2.543,0,0,0,0,7.043V22.3a2.543,2.543,0,0,0,2.543,2.543H24.582A2.543,2.543,0,0,0,27.125,22.3V10.434A2.543,2.543,0,0,0,24.582,7.891Z" transform="translate(598 499.865)" fill="none" stroke="#fff" stroke-width="2"/>
    <path id="Icon_awesome-folder-15" data-name="Icon awesome-folder" d="M24.582,7.891H14.41L11.02,4.5H2.543A2.543,2.543,0,0,0,0,7.043V22.3a2.543,2.543,0,0,0,2.543,2.543H24.582A2.543,2.543,0,0,0,27.125,22.3V10.434A2.543,2.543,0,0,0,24.582,7.891Z" transform="translate(895 499.865)" fill="none" stroke="#fff" stroke-width="2"/>
    <path id="Icon_awesome-folder-16" data-name="Icon awesome-folder" d="M24.582,7.891H14.41L11.02,4.5H2.543A2.543,2.543,0,0,0,0,7.043V22.3a2.543,2.543,0,0,0,2.543,2.543H24.582A2.543,2.543,0,0,0,27.125,22.3V10.434A2.543,2.543,0,0,0,24.582,7.891Z" transform="translate(1192 499.865)" fill="none" stroke="#fff" stroke-width="2"/>
    <path id="Icon_awesome-folder-17" data-name="Icon awesome-folder" d="M24.582,7.891H14.41L11.02,4.5H2.543A2.543,2.543,0,0,0,0,7.043V22.3a2.543,2.543,0,0,0,2.543,2.543H24.582A2.543,2.543,0,0,0,27.125,22.3V10.434A2.543,2.543,0,0,0,24.582,7.891Z" transform="translate(1418 366.865)" fill="none" stroke="#fff" stroke-width="2"/>
    <path id="Icon_awesome-folder-18" data-name="Icon awesome-folder" d="M24.582,7.891H14.41L11.02,4.5H2.543A2.543,2.543,0,0,0,0,7.043V22.3a2.543,2.543,0,0,0,2.543,2.543H24.582A2.543,2.543,0,0,0,27.125,22.3V10.434A2.543,2.543,0,0,0,24.582,7.891Z" transform="translate(301 566.924)" fill="none" stroke="#fff" stroke-width="2"/>
    <path id="Icon_awesome-folder-19" data-name="Icon awesome-folder" d="M24.582,7.891H14.41L11.02,4.5H2.543A2.543,2.543,0,0,0,0,7.043V22.3a2.543,2.543,0,0,0,2.543,2.543H24.582A2.543,2.543,0,0,0,27.125,22.3V10.434A2.543,2.543,0,0,0,24.582,7.891Z" transform="translate(598 566.924)" fill="none" stroke="#fff" stroke-width="2"/>
    <path id="Icon_awesome-folder-20" data-name="Icon awesome-folder" d="M24.582,7.891H14.41L11.02,4.5H2.543A2.543,2.543,0,0,0,0,7.043V22.3a2.543,2.543,0,0,0,2.543,2.543H24.582A2.543,2.543,0,0,0,27.125,22.3V10.434A2.543,2.543,0,0,0,24.582,7.891Z" transform="translate(895 566.924)" fill="none" stroke="#fff" stroke-width="2"/>
    <path id="Icon_awesome-folder-21" data-name="Icon awesome-folder" d="M24.582,7.891H14.41L11.02,4.5H2.543A2.543,2.543,0,0,0,0,7.043V22.3a2.543,2.543,0,0,0,2.543,2.543H24.582A2.543,2.543,0,0,0,27.125,22.3V10.434A2.543,2.543,0,0,0,24.582,7.891Z" transform="translate(1192 566.924)" fill="none" stroke="#fff" stroke-width="2"/>
    <path id="Icon_awesome-folder-22" data-name="Icon awesome-folder" d="M24.582,7.891H14.41L11.02,4.5H2.543A2.543,2.543,0,0,0,0,7.043V22.3a2.543,2.543,0,0,0,2.543,2.543H24.582A2.543,2.543,0,0,0,27.125,22.3V10.434A2.543,2.543,0,0,0,24.582,7.891Z" transform="translate(1418 433.924)" fill="none" stroke="#fff" stroke-width="2"/>
    <path id="Icon_awesome-folder-23" data-name="Icon awesome-folder" d="M24.582,7.891H14.41L11.02,4.5H2.543A2.543,2.543,0,0,0,0,7.043V22.3a2.543,2.543,0,0,0,2.543,2.543H24.582A2.543,2.543,0,0,0,27.125,22.3V10.434A2.543,2.543,0,0,0,24.582,7.891Z" transform="translate(301 432.806)" fill="none" stroke="#fff" stroke-width="2"/>
    <path id="Icon_awesome-folder-24" data-name="Icon awesome-folder" d="M24.582,7.891H14.41L11.02,4.5H2.543A2.543,2.543,0,0,0,0,7.043V22.3a2.543,2.543,0,0,0,2.543,2.543H24.582A2.543,2.543,0,0,0,27.125,22.3V10.434A2.543,2.543,0,0,0,24.582,7.891Z" transform="translate(598 432.806)" fill="none" stroke="#fff" stroke-width="2"/>
    <path id="Icon_awesome-folder-25" data-name="Icon awesome-folder" d="M24.582,7.891H14.41L11.02,4.5H2.543A2.543,2.543,0,0,0,0,7.043V22.3a2.543,2.543,0,0,0,2.543,2.543H24.582A2.543,2.543,0,0,0,27.125,22.3V10.434A2.543,2.543,0,0,0,24.582,7.891Z" transform="translate(895 432.806)" fill="none" stroke="#fff" stroke-width="2"/>
    <path id="Icon_awesome-folder-26" data-name="Icon awesome-folder" d="M24.582,7.891H14.41L11.02,4.5H2.543A2.543,2.543,0,0,0,0,7.043V22.3a2.543,2.543,0,0,0,2.543,2.543H24.582A2.543,2.543,0,0,0,27.125,22.3V10.434A2.543,2.543,0,0,0,24.582,7.891Z" transform="translate(1192 432.806)" fill="none" stroke="#fff" stroke-width="2"/>
    <path id="Icon_awesome-folder-27" data-name="Icon awesome-folder" d="M24.582,7.891H14.41L11.02,4.5H2.543A2.543,2.543,0,0,0,0,7.043V22.3a2.543,2.543,0,0,0,2.543,2.543H24.582A2.543,2.543,0,0,0,27.125,22.3V10.434A2.543,2.543,0,0,0,24.582,7.891Z" transform="translate(301 533.017)" fill="none" stroke="#fff" stroke-width="2"/>
    <path id="Icon_awesome-folder-28" data-name="Icon awesome-folder" d="M24.582,7.891H14.41L11.02,4.5H2.543A2.543,2.543,0,0,0,0,7.043V22.3a2.543,2.543,0,0,0,2.543,2.543H24.582A2.543,2.543,0,0,0,27.125,22.3V10.434A2.543,2.543,0,0,0,24.582,7.891Z" transform="translate(598 533.017)" fill="none" stroke="#fff" stroke-width="2"/>
    <path id="Icon_awesome-folder-29" data-name="Icon awesome-folder" d="M24.582,7.891H14.41L11.02,4.5H2.543A2.543,2.543,0,0,0,0,7.043V22.3a2.543,2.543,0,0,0,2.543,2.543H24.582A2.543,2.543,0,0,0,27.125,22.3V10.434A2.543,2.543,0,0,0,24.582,7.891Z" transform="translate(895 533.017)" fill="none" stroke="#fff" stroke-width="2"/>
    <path id="Icon_awesome-folder-30" data-name="Icon awesome-folder" d="M24.582,7.891H14.41L11.02,4.5H2.543A2.543,2.543,0,0,0,0,7.043V22.3a2.543,2.543,0,0,0,2.543,2.543H24.582A2.543,2.543,0,0,0,27.125,22.3V10.434A2.543,2.543,0,0,0,24.582,7.891Z" transform="translate(1192 533.017)" fill="none" stroke="#fff" stroke-width="2"/>
    <path id="Icon_awesome-folder-31" data-name="Icon awesome-folder" d="M24.582,7.891H14.41L11.02,4.5H2.543A2.543,2.543,0,0,0,0,7.043V22.3a2.543,2.543,0,0,0,2.543,2.543H24.582A2.543,2.543,0,0,0,27.125,22.3V10.434A2.543,2.543,0,0,0,24.582,7.891Z" transform="translate(1418 400.017)" fill="none" stroke="#fff" stroke-width="2"/>
    <path id="Icon_awesome-folder-32" data-name="Icon awesome-folder" d="M24.582,7.891H14.41L11.02,4.5H2.543A2.543,2.543,0,0,0,0,7.043V22.3a2.543,2.543,0,0,0,2.543,2.543H24.582A2.543,2.543,0,0,0,27.125,22.3V10.434A2.543,2.543,0,0,0,24.582,7.891Z" transform="translate(301 600.076)" fill="none" stroke="#fff" stroke-width="2"/>
    <path id="Icon_awesome-folder-33" data-name="Icon awesome-folder" d="M24.582,7.891H14.41L11.02,4.5H2.543A2.543,2.543,0,0,0,0,7.043V22.3a2.543,2.543,0,0,0,2.543,2.543H24.582A2.543,2.543,0,0,0,27.125,22.3V10.434A2.543,2.543,0,0,0,24.582,7.891Z" transform="translate(598 600.076)" fill="none" stroke="#fff" stroke-width="2"/>
    <path id="Icon_awesome-folder-34" data-name="Icon awesome-folder" d="M24.582,7.891H14.41L11.02,4.5H2.543A2.543,2.543,0,0,0,0,7.043V22.3a2.543,2.543,0,0,0,2.543,2.543H24.582A2.543,2.543,0,0,0,27.125,22.3V10.434A2.543,2.543,0,0,0,24.582,7.891Z" transform="translate(895 600.076)" fill="none" stroke="#fff" stroke-width="2"/>
    <path id="Icon_awesome-folder-35" data-name="Icon awesome-folder" d="M24.582,7.891H14.41L11.02,4.5H2.543A2.543,2.543,0,0,0,0,7.043V22.3a2.543,2.543,0,0,0,2.543,2.543H24.582A2.543,2.543,0,0,0,27.125,22.3V10.434A2.543,2.543,0,0,0,24.582,7.891Z" transform="translate(1192 600.076)" fill="none" stroke="#fff" stroke-width="2"/>
    <path id="Icon_awesome-folder-36" data-name="Icon awesome-folder" d="M24.582,7.891H14.41L11.02,4.5H2.543A2.543,2.543,0,0,0,0,7.043V22.3a2.543,2.543,0,0,0,2.543,2.543H24.582A2.543,2.543,0,0,0,27.125,22.3V10.434A2.543,2.543,0,0,0,24.582,7.891Z" transform="translate(1418 467.076)" fill="none" stroke="#fff" stroke-width="2"/>
    <text id="Compact_Sidebar_Layouts" data-name="Compact Sidebar Layouts" transform="translate(301 350)" fill="#fff" font-size="18" font-family="OpenSans, Open Sans"><tspan x="0" y="0">Compact Sidebar Layouts</tspan></text>
    <text id="Slim_Sidebar_Layouts" data-name="Slim Sidebar Layouts" transform="translate(598 350)" fill="#fff" font-size="18" font-family="OpenSans, Open Sans"><tspan x="0" y="0">Slim Sidebar Layouts</tspan></text>
    <text id="Default_Sidebar_Layouts" data-name="Default Sidebar Layouts" transform="translate(895 350)" fill="#fff" font-size="18" font-family="OpenSans, Open Sans"><tspan x="0" y="0">Default Sidebar Layouts</tspan></text>
    <text id="Topbar_Layouts" data-name="Topbar Layouts" transform="translate(1192 350)" fill="#fff" font-size="18" font-family="OpenSans, Open Sans"><tspan x="0" y="0">Topbar Layouts</tspan></text>
    <text id="_01_Default" data-name="01 Default" transform="translate(345 388)" fill="#fff" font-size="13" font-family="OpenSans, Open Sans"><tspan x="0" y="0">01 Default</tspan></text>
    <text id="_01_Default-2" data-name="01 Default" transform="translate(642 388)" fill="#fff" font-size="13" font-family="OpenSans, Open Sans"><tspan x="0" y="0">01 Default</tspan></text>
    <text id="_01_Default-3" data-name="01 Default" transform="translate(939 388)" fill="#fff" font-size="13" font-family="OpenSans, Open Sans"><tspan x="0" y="0">01 Default</tspan></text>
    <text id="_01_Default-4" data-name="01 Default" transform="translate(1236 388)" fill="#fff" font-size="13" font-family="OpenSans, Open Sans"><tspan x="0" y="0">01 Default</tspan></text>
    <text id="_05_Fixed" data-name="05 Fixed" transform="translate(345 522)" fill="#fff" font-size="13" font-family="OpenSans, Open Sans"><tspan x="0" y="0">05 Fixed</tspan></text>
    <text id="_05_Fixed-2" data-name="05 Fixed" transform="translate(642 522)" fill="#fff" font-size="13" font-family="OpenSans, Open Sans"><tspan x="0" y="0">05 Fixed</tspan></text>
    <text id="_05_Fixed-3" data-name="05 Fixed" transform="translate(939 522)" fill="#fff" font-size="13" font-family="OpenSans, Open Sans"><tspan x="0" y="0">05 Fixed</tspan></text>
    <text id="_05_Fixed-4" data-name="05 Fixed" transform="translate(1236 522)" fill="#fff" font-size="13" font-family="OpenSans, Open Sans"><tspan x="0" y="0">05 Fixed</tspan></text>
    <text id="_09_Boxed" data-name="09 Boxed" transform="translate(1462 389)" fill="#fff" font-size="13" font-family="OpenSans, Open Sans"><tspan x="0" y="0">09 Boxed</tspan></text>
    <text id="_03_Default_Light" data-name="03 Default Light" transform="translate(345 453)" fill="#fff" font-size="13" font-family="OpenSans, Open Sans"><tspan x="0" y="0">03 Default Light</tspan></text>
    <text id="_03_Default_Light-2" data-name="03 Default Light" transform="translate(642 453)" fill="#fff" font-size="13" font-family="OpenSans, Open Sans"><tspan x="0" y="0">03 Default Light</tspan></text>
    <text id="_03_Default_Light-3" data-name="03 Default Light" transform="translate(939 453)" fill="#fff" font-size="13" font-family="OpenSans, Open Sans"><tspan x="0" y="0">03 Default Light</tspan></text>
    <text id="_03_Default_Light-4" data-name="03 Default Light" transform="translate(1236 453)" fill="#fff" font-size="13" font-family="OpenSans, Open Sans"><tspan x="0" y="0">03 Default Light</tspan></text>
    <text id="_07_Fixed_Light" data-name="07 Fixed Light" transform="translate(345 587)" fill="#fff" font-size="13" font-family="OpenSans, Open Sans"><tspan x="0" y="0">07 Fixed Light</tspan></text>
    <text id="_07_Fixed_Light-2" data-name="07 Fixed Light" transform="translate(642 587)" fill="#fff" font-size="13" font-family="OpenSans, Open Sans"><tspan x="0" y="0">07 Fixed Light</tspan></text>
    <text id="_07_Fixed_Light-3" data-name="07 Fixed Light" transform="translate(939 587)" fill="#fff" font-size="13" font-family="OpenSans, Open Sans"><tspan x="0" y="0">07 Fixed Light</tspan></text>
    <text id="_07_Fixed_Light-4" data-name="07 Fixed Light" transform="translate(1236 587)" fill="#fff" font-size="13" font-family="OpenSans, Open Sans"><tspan x="0" y="0">07 Fixed Light</tspan></text>
    <text id="_11_Boxed_Light" data-name="11 Boxed Light" transform="translate(1462 454)" fill="#fff" font-size="13" font-family="OpenSans, Open Sans"><tspan x="0" y="0">11 Boxed Light</tspan></text>
    <text id="_02_Default_RTL" data-name="02 Default RTL" transform="translate(345 420)" fill="#fff" font-size="13" font-family="OpenSans, Open Sans"><tspan x="0" y="0">02 Default RTL</tspan></text>
    <text id="_02_Default_RTL-2" data-name="02 Default RTL" transform="translate(642 420)" fill="#fff" font-size="13" font-family="OpenSans, Open Sans"><tspan x="0" y="0">02 Default RTL</tspan></text>
    <text id="_02_Default_RTL-3" data-name="02 Default RTL" transform="translate(939 420)" fill="#fff" font-size="13" font-family="OpenSans, Open Sans"><tspan x="0" y="0">02 Default RTL</tspan></text>
    <text id="_02_Default_RTL-4" data-name="02 Default RTL" transform="translate(1236 420)" fill="#fff" font-size="13" font-family="OpenSans, Open Sans"><tspan x="0" y="0">02 Default RTL</tspan></text>
    <text id="_06_Fixed_RTL" data-name="06 Fixed RTL" transform="translate(345 554)" fill="#fff" font-size="13" font-family="OpenSans, Open Sans"><tspan x="0" y="0">06 Fixed RTL</tspan></text>
    <text id="_06_Fixed_RTL-2" data-name="06 Fixed RTL" transform="translate(642 554)" fill="#fff" font-size="13" font-family="OpenSans, Open Sans"><tspan x="0" y="0">06 Fixed RTL</tspan></text>
    <text id="_06_Fixed_RTL-3" data-name="06 Fixed RTL" transform="translate(939 554)" fill="#fff" font-size="13" font-family="OpenSans, Open Sans"><tspan x="0" y="0">06 Fixed RTL</tspan></text>
    <text id="_06_Fixed_RTL-4" data-name="06 Fixed RTL" transform="translate(1236 554)" fill="#fff" font-size="13" font-family="OpenSans, Open Sans"><tspan x="0" y="0">06 Fixed RTL</tspan></text>
    <text id="_10_Boxed_RTL" data-name="10 Boxed RTL" transform="translate(1462 421)" fill="#fff" font-size="13" font-family="OpenSans, Open Sans"><tspan x="0" y="0">10 Boxed RTL</tspan></text>
    <text id="_04_Default_Light_RTL" data-name="04 Default Light RTL" transform="translate(345 485)" fill="#fff" font-size="13" font-family="OpenSans, Open Sans"><tspan x="0" y="0">04 Default Light RTL</tspan></text>
    <text id="_04_Default_Light_RTL-2" data-name="04 Default Light RTL" transform="translate(642 485)" fill="#fff" font-size="13" font-family="OpenSans, Open Sans"><tspan x="0" y="0">04 Default Light RTL</tspan></text>
    <text id="_04_Default_Light_RTL-3" data-name="04 Default Light RTL" transform="translate(939 485)" fill="#fff" font-size="13" font-family="OpenSans, Open Sans"><tspan x="0" y="0">04 Default Light RTL</tspan></text>
    <text id="_04_Default_Light_RTL-4" data-name="04 Default Light RTL" transform="translate(1236 485)" fill="#fff" font-size="13" font-family="OpenSans, Open Sans"><tspan x="0" y="0">04 Default Light RTL</tspan></text>
    <text id="_08_Fixed_Light_RTL" data-name="08 Fixed Light RTL" transform="translate(345 619)" fill="#fff" font-size="13" font-family="OpenSans, Open Sans"><tspan x="0" y="0">08 Fixed Light RTL</tspan></text>
    <text id="_08_Fixed_Light_RTL-2" data-name="08 Fixed Light RTL" transform="translate(642 619)" fill="#fff" font-size="13" font-family="OpenSans, Open Sans"><tspan x="0" y="0">08 Fixed Light RTL</tspan></text>
    <text id="_08_Fixed_Light_RTL-3" data-name="08 Fixed Light RTL" transform="translate(939 619)" fill="#fff" font-size="13" font-family="OpenSans, Open Sans"><tspan x="0" y="0">08 Fixed Light RTL</tspan></text>
    <text id="_08_Fixed_Light_RTL-4" data-name="08 Fixed Light RTL" transform="translate(1236 619)" fill="#fff" font-size="13" font-family="OpenSans, Open Sans"><tspan x="0" y="0">08 Fixed Light RTL</tspan></text>
    <text id="_12_Boxed_Light_RTL" data-name="12 Boxed Light RTL" transform="translate(1462 486)" fill="#fff" font-size="13" font-family="OpenSans, Open Sans"><tspan x="0" y="0">12 Boxed Light RTL</tspan></text>
  </g>
</svg>
