<svg xmlns="http://www.w3.org/2000/svg" width="1431.5" height="625" viewBox="0 0 1431.5 625">
  <g id="Group_1" data-name="Group 1" transform="translate(-203 -165)">
    <g id="Rectangle_1" data-name="Rectangle 1" transform="translate(510 290)" fill="none" stroke="#fff" stroke-width="1">
      <rect width="900" height="500" stroke="none"/>
      <rect x="0.5" y="0.5" width="899" height="499" fill="none"/>
    </g>
    <line id="Line_1" data-name="Line 1" x2="900" y2="1" transform="translate(510.5 341.5)" fill="none" stroke="#fff" stroke-width="1"/>
    <text id="LOGO" transform="translate(528 323)" fill="#fff" font-size="20" font-family="OpenSans-Bold, Open Sans" font-weight="700"><tspan x="0" y="0">LOGO</tspan></text>
    <g id="Rectangle_2" data-name="Rectangle 2" transform="translate(599 308)" fill="none" stroke="#fff" stroke-width="1">
      <rect width="22" height="17" rx="2" stroke="none"/>
      <rect x="0.5" y="0.5" width="21" height="16" rx="1.5" fill="none"/>
    </g>
    <line id="Line_2" data-name="Line 2" x2="11" transform="translate(604.5 313.5)" fill="none" stroke="#fff" stroke-width="1"/>
    <line id="Line_3" data-name="Line 3" x2="11" transform="translate(604.5 316.5)" fill="none" stroke="#fff" stroke-width="1"/>
    <line id="Line_4" data-name="Line 4" x2="11" transform="translate(604.5 319.5)" fill="none" stroke="#fff" stroke-width="1"/>
    <line id="Line_5" data-name="Line 5" y1="28" transform="translate(610.5 277.5)" fill="none" stroke="#fff" stroke-width="1"/>
    <line id="Line_6" data-name="Line 6" y1="8" x2="9" transform="translate(610.5 270.5)" fill="none" stroke="#fff" stroke-width="1"/>
    <text id="Quick_Links" data-name="Quick Links" transform="translate(625 266)" fill="#fff" font-size="14" font-family="OpenSans-Light, Open Sans" font-weight="300"><tspan x="0" y="0">Quick Links</tspan></text>
    <text id="Quick_Links-2" data-name="Quick Links" transform="translate(220 365)" fill="#fff" font-size="14" font-family="OpenSans-Semibold, Open Sans" font-weight="600"><tspan x="0" y="0">Quick Links</tspan></text>
    <path id="Icon_awesome-user-circle" data-name="Icon awesome-user-circle" d="M17.438.563A17.438,17.438,0,1,0,34.875,18,17.434,17.434,0,0,0,17.438.563Zm0,6.75A6.188,6.188,0,1,1,11.25,13.5,6.188,6.188,0,0,1,17.438,7.313Zm0,24.188a13.474,13.474,0,0,1-10.3-4.8,7.839,7.839,0,0,1,6.926-4.2,1.72,1.72,0,0,1,.5.077,9.309,9.309,0,0,0,2.876.485,9.274,9.274,0,0,0,2.876-.485,1.72,1.72,0,0,1,.5-.077,7.839,7.839,0,0,1,6.926,4.2A13.474,13.474,0,0,1,17.438,31.5Z" transform="translate(1312 297.438)" fill="#fff"/>
    <g id="Rectangle_3" data-name="Rectangle 3" transform="translate(1366 307)" fill="none" stroke="#fff" stroke-width="1">
      <rect width="22" height="17" rx="2" stroke="none"/>
      <rect x="0.5" y="0.5" width="21" height="16" rx="1.5" fill="none"/>
    </g>
    <line id="Line_7" data-name="Line 7" x2="11" transform="translate(1371.5 312.5)" fill="none" stroke="#fff" stroke-width="1"/>
    <line id="Line_8" data-name="Line 8" x2="11" transform="translate(1371.5 315.5)" fill="none" stroke="#fff" stroke-width="1"/>
    <line id="Line_9" data-name="Line 9" x2="11" transform="translate(1371.5 318.5)" fill="none" stroke="#fff" stroke-width="1"/>
    <line id="Line_10" data-name="Line 10" y1="28" transform="translate(1377.5 277.5)" fill="none" stroke="#fff" stroke-width="1"/>
    <line id="Line_11" data-name="Line 11" y1="8" x2="9" transform="translate(1377.5 270.5)" fill="none" stroke="#fff" stroke-width="1"/>
    <text id="Quick_Settings" data-name="Quick Settings" transform="translate(1392 266)" fill="#fff" font-size="14" font-family="OpenSans-Light, Open Sans" font-weight="300"><tspan x="0" y="0">Quick Settings</tspan></text>
    <text id="Quick_Settings_Slidebar" data-name="Quick Settings
Slidebar" transform="translate(1526 305)" fill="#fff" font-size="14" font-family="OpenSans-Light, Open Sans" font-weight="300"><tspan x="0" y="0">Quick Settings</tspan><tspan x="0" y="19">Slidebar</tspan></text>
    <g id="Icon_feather-alert-triangle" data-name="Icon feather-alert-triangle" transform="translate(1256.276 301.841)">
      <path id="Path_1" data-name="Path 1" d="M11,5.3,2.594,19.336a1.985,1.985,0,0,0,1.7,2.978H21.1a1.985,1.985,0,0,0,1.7-2.978L14.4,5.3A1.985,1.985,0,0,0,11,5.3Z" fill="none" stroke="#fff" stroke-linecap="round" stroke-linejoin="round" stroke-width="2"/>
      <path id="Path_2" data-name="Path 2" d="M18,13.5v3.97" transform="translate(-5.302 -3.097)" fill="none" stroke="#fff" stroke-linecap="round" stroke-linejoin="round" stroke-width="2"/>
      <path id="Path_3" data-name="Path 3" d="M18,25.5h0" transform="translate(-5.302 -7.157)" fill="none" stroke="#fff" stroke-linecap="round" stroke-linejoin="round" stroke-width="2"/>
    </g>
    <line id="Line_12" data-name="Line 12" y1="90" transform="translate(1329.5 205.5)" fill="none" stroke="#fff" stroke-width="1"/>
    <line id="Line_13" data-name="Line 13" y1="8" x2="9" transform="translate(1329.5 197.5)" fill="none" stroke="#fff" stroke-width="1"/>
    <text id="User_Profile_Settings" data-name="User Profile/Settings" transform="translate(1339 186)" fill="#fff" font-size="14" font-family="OpenSans-Light, Open Sans" font-weight="300"><tspan x="0" y="0">User Profile/Settings</tspan></text>
    <line id="Line_14" data-name="Line 14" y1="40" transform="translate(1268.5 261.5)" fill="none" stroke="#fff" stroke-width="1"/>
    <line id="Line_15" data-name="Line 15" x1="10" y1="8" transform="translate(1258.5 253.5)" fill="none" stroke="#fff" stroke-width="1"/>
    <text id="Notifications" transform="translate(1175 250)" fill="#fff" font-size="14" font-family="OpenSans-Light, Open Sans" font-weight="300"><tspan x="0" y="0">Notifications</tspan></text>
    <g id="Rectangle_4" data-name="Rectangle 4" transform="translate(982 302)" fill="none" stroke="#fff" stroke-width="1">
      <rect width="246" height="29" rx="14.5" stroke="none"/>
      <rect x="0.5" y="0.5" width="245" height="28" rx="14" fill="none"/>
    </g>
    <g id="Icon_feather-search" data-name="Icon feather-search" transform="translate(1192.67 304.67)">
      <path id="Path_4" data-name="Path 4" d="M17.682,11.091A6.591,6.591,0,1,1,11.091,4.5a6.591,6.591,0,0,1,6.591,6.591Z" fill="none" stroke="#fff" stroke-linecap="round" stroke-linejoin="round" stroke-width="2"/>
      <path id="Path_5" data-name="Path 5" d="M28.559,28.559l-3.584-3.584" transform="translate(-9.229 -9.229)" fill="none" stroke="#fff" stroke-linecap="round" stroke-linejoin="round" stroke-width="2"/>
    </g>
    <line id="Line_16" data-name="Line 16" y1="107" transform="translate(1138.5 191.5)" fill="none" stroke="#fff" stroke-width="1"/>
    <line id="Line_17" data-name="Line 17" x1="10" y1="8" transform="translate(1128.5 183.5)" fill="none" stroke="#fff" stroke-width="1"/>
    <text id="Search" transform="translate(1079 180)" fill="#fff" font-size="14" font-family="OpenSans-Light, Open Sans" font-weight="300"><tspan x="0" y="0">Search</tspan></text>
    <line id="Line_18" data-name="Line 18" x2="97" transform="translate(1396.5 315.5)" fill="none" stroke="#fff" stroke-width="1"/>
    <g id="Rectangle_5" data-name="Rectangle 5" transform="translate(1506 339)" fill="none" stroke="#fff" stroke-width="1">
      <rect width="128" height="451" stroke="none"/>
      <rect x="0.5" y="0.5" width="127" height="450" fill="none"/>
    </g>
    <line id="Line_19" data-name="Line 19" x2="18" y2="17" transform="translate(1493.5 315.5)" fill="none" stroke="#fff" stroke-width="1"/>
    <text id="Today" transform="translate(1520 367)" fill="#fff" font-size="13" font-family="OpenSans-Light, Open Sans" font-weight="300"><tspan x="0" y="0">Today</tspan></text>
    <text id="_10th_Monday" data-name="10th, Monday" transform="translate(1520 383)" fill="#fff" font-size="11" font-family="OpenSans-Light, Open Sans" font-weight="300"><tspan x="0" y="0">10th, Monday</tspan></text>
    <rect id="Rectangle_6" data-name="Rectangle 6" width="42" height="9" transform="translate(1520 410)" fill="rgba(255,255,255,0.66)"/>
    <rect id="Rectangle_7" data-name="Rectangle 7" width="42" height="9" transform="translate(1520 516)" fill="rgba(255,255,255,0.66)"/>
    <rect id="Rectangle_8" data-name="Rectangle 8" width="81" height="5" transform="translate(1520 425)" fill="rgba(255,255,255,0.3)"/>
    <rect id="Rectangle_9" data-name="Rectangle 9" width="81" height="5" transform="translate(1520 531)" fill="rgba(255,255,255,0.3)"/>
    <rect id="Rectangle_10" data-name="Rectangle 10" width="81" height="5" transform="translate(1520 443)" fill="rgba(255,255,255,0.3)"/>
    <rect id="Rectangle_11" data-name="Rectangle 11" width="81" height="5" transform="translate(1520 549)" fill="rgba(255,255,255,0.3)"/>
    <rect id="Rectangle_12" data-name="Rectangle 12" width="81" height="5" transform="translate(1520 461)" fill="rgba(255,255,255,0.3)"/>
    <rect id="Rectangle_13" data-name="Rectangle 13" width="81" height="5" transform="translate(1520 567)" fill="rgba(255,255,255,0.3)"/>
    <rect id="Rectangle_14" data-name="Rectangle 14" width="81" height="5" transform="translate(1520 479)" fill="rgba(255,255,255,0.3)"/>
    <rect id="Rectangle_15" data-name="Rectangle 15" width="81" height="5" transform="translate(1520 585)" fill="rgba(255,255,255,0.3)"/>
    <rect id="Rectangle_16" data-name="Rectangle 16" width="103" height="8" transform="translate(1520 431)" fill="rgba(255,255,255,0.3)"/>
    <rect id="Rectangle_17" data-name="Rectangle 17" width="103" height="8" transform="translate(1520 537)" fill="rgba(255,255,255,0.3)"/>
    <rect id="Rectangle_18" data-name="Rectangle 18" width="103" height="8" transform="translate(1520 449)" fill="rgba(255,255,255,0.3)"/>
    <rect id="Rectangle_19" data-name="Rectangle 19" width="103" height="8" transform="translate(1520 555)" fill="rgba(255,255,255,0.3)"/>
    <rect id="Rectangle_20" data-name="Rectangle 20" width="103" height="8" transform="translate(1520 467)" fill="rgba(255,255,255,0.3)"/>
    <rect id="Rectangle_21" data-name="Rectangle 21" width="103" height="8" transform="translate(1520 573)" fill="rgba(255,255,255,0.3)"/>
    <rect id="Rectangle_22" data-name="Rectangle 22" width="103" height="8" transform="translate(1520 485)" fill="rgba(255,255,255,0.3)"/>
    <rect id="Rectangle_23" data-name="Rectangle 23" width="103" height="8" transform="translate(1520 591)" fill="rgba(255,255,255,0.3)"/>
    <line id="Line_20" data-name="Line 20" x2="128" transform="translate(1506.5 504.5)" fill="none" stroke="#fff" stroke-width="1"/>
    <line id="Line_21" data-name="Line 21" x2="128" transform="translate(1506.5 610.5)" fill="none" stroke="#fff" stroke-width="1"/>
    <g id="Rectangle_24" data-name="Rectangle 24" transform="translate(203 339)" fill="none" stroke="#fff" stroke-width="1">
      <rect width="272" height="451" stroke="none"/>
      <rect x="0.5" y="0.5" width="271" height="450" fill="none"/>
    </g>
    <line id="Line_22" data-name="Line 22" x1="182" y1="42" transform="translate(417.5 260.5)" fill="none" stroke="#fff" stroke-width="1"/>
    <path id="Path_1-2" data-name="Path 1" d="M30.74,0,0,69" transform="translate(386.5 260.5)" fill="none" stroke="#fff" stroke-width="1"/>
    <circle id="Ellipse_1" data-name="Ellipse 1" cx="7" cy="7" r="7" transform="translate(452 353)" fill="#fff"/>
    <text id="x" transform="translate(457 362)" font-size="7" font-family="OpenSans-Bold, Open Sans" font-weight="700"><tspan x="0" y="0">x</tspan></text>
    <circle id="Ellipse_2" data-name="Ellipse 2" cx="7" cy="7" r="7" transform="translate(1610 350)" fill="#fff"/>
    <text id="x-2" data-name="x" transform="translate(1615 359)" font-size="7" font-family="OpenSans-Bold, Open Sans" font-weight="700"><tspan x="0" y="0">x</tspan></text>
    <rect id="Rectangle_25" data-name="Rectangle 25" width="59" height="59" transform="translate(220 393)" fill="rgba(255,255,255,0.22)"/>
    <rect id="Rectangle_26" data-name="Rectangle 26" width="59" height="59" transform="translate(220 573)" fill="rgba(255,255,255,0.22)"/>
    <rect id="Rectangle_27" data-name="Rectangle 27" width="59" height="59" transform="translate(220 633)" fill="rgba(255,255,255,0.22)"/>
    <path id="Union_1" data-name="Union 1" d="M59.5,59V0H119V59ZM0,59V0H59.5V59Z" transform="translate(340 513)" fill="rgba(255,255,255,0.22)"/>
    <path id="Union_2" data-name="Union 2" d="M59.5,59V0H119V59ZM0,59V0H59.5V59Z" transform="translate(220 453)" fill="rgba(255,255,255,0.22)"/>
    <rect id="Rectangle_32" data-name="Rectangle 32" width="59" height="59" transform="translate(280 393)" fill="rgba(255,255,255,0.22)"/>
    <rect id="Rectangle_33" data-name="Rectangle 33" width="59" height="59" transform="translate(280 573)" fill="rgba(255,255,255,0.22)"/>
    <rect id="Rectangle_34" data-name="Rectangle 34" width="59" height="59" transform="translate(280 633)" fill="rgba(255,255,255,0.22)"/>
    <rect id="Rectangle_35" data-name="Rectangle 35" width="59" height="59" transform="translate(340 393)" fill="rgba(255,255,255,0.22)"/>
    <rect id="Rectangle_36" data-name="Rectangle 36" width="59" height="59" transform="translate(340 573)" fill="rgba(255,255,255,0.22)"/>
    <rect id="Rectangle_37" data-name="Rectangle 37" width="59" height="59" transform="translate(340 633)" fill="rgba(255,255,255,0.22)"/>
    <rect id="Rectangle_38" data-name="Rectangle 38" width="59" height="59" transform="translate(340 453)" fill="rgba(255,255,255,0.22)"/>
    <rect id="Rectangle_39" data-name="Rectangle 39" width="59" height="59" transform="translate(220 513)" fill="rgba(255,255,255,0.22)"/>
    <rect id="Rectangle_40" data-name="Rectangle 40" width="59" height="59" transform="translate(400 393)" fill="rgba(255,255,255,0.22)"/>
    <rect id="Rectangle_41" data-name="Rectangle 41" width="59" height="59" transform="translate(400 573)" fill="rgba(255,255,255,0.22)"/>
    <rect id="Rectangle_42" data-name="Rectangle 42" width="59" height="59" transform="translate(400 633)" fill="rgba(255,255,255,0.22)"/>
    <rect id="Rectangle_43" data-name="Rectangle 43" width="59" height="59" transform="translate(400 453)" fill="rgba(255,255,255,0.22)"/>
    <rect id="Rectangle_44" data-name="Rectangle 44" width="59" height="59" transform="translate(280 513)" fill="rgba(255,255,255,0.22)"/>
    <g id="Rectangle_45" data-name="Rectangle 45" transform="translate(528 355)" fill="none" stroke="#fff" stroke-width="1">
      <rect width="860" height="38" stroke="none"/>
      <rect x="0.5" y="0.5" width="859" height="37" fill="none"/>
    </g>
    <line id="Line_23" data-name="Line 23" y2="37" transform="translate(585.5 355.5)" fill="none" stroke="#fff" stroke-width="1"/>
    <line id="Line_24" data-name="Line 24" y2="37" transform="translate(637.5 355.5)" fill="none" stroke="#fff" stroke-width="1"/>
    <line id="Line_25" data-name="Line 25" y2="37" transform="translate(689.5 355.5)" fill="none" stroke="#fff" stroke-width="1"/>
    <line id="Line_26" data-name="Line 26" y2="37" transform="translate(741.5 355.5)" fill="none" stroke="#fff" stroke-width="1"/>
    <line id="Line_27" data-name="Line 27" y2="37" transform="translate(793.5 355.5)" fill="none" stroke="#fff" stroke-width="1"/>
    <line id="Line_28" data-name="Line 28" y2="37" transform="translate(845.5 355.5)" fill="none" stroke="#fff" stroke-width="1"/>
    <line id="Line_29" data-name="Line 29" y2="37" transform="translate(897.5 355.5)" fill="none" stroke="#fff" stroke-width="1"/>
    <line id="Line_30" data-name="Line 30" y2="37" transform="translate(1001.5 355.5)" fill="none" stroke="#fff" stroke-width="1"/>
    <line id="Line_31" data-name="Line 31" y2="37" transform="translate(1105.5 355.5)" fill="none" stroke="#fff" stroke-width="1"/>
    <line id="Line_32" data-name="Line 32" y2="37" transform="translate(949.5 355.5)" fill="none" stroke="#fff" stroke-width="1"/>
    <line id="Line_33" data-name="Line 33" y2="37" transform="translate(1053.5 355.5)" fill="none" stroke="#fff" stroke-width="1"/>
    <line id="Line_34" data-name="Line 34" y2="37" transform="translate(1157.5 355.5)" fill="none" stroke="#fff" stroke-width="1"/>
    <g id="Rectangle_46" data-name="Rectangle 46" transform="translate(637 392)" fill="none" stroke="#fff" stroke-width="1">
      <rect width="93.029" height="118" stroke="none"/>
      <rect x="0.5" y="0.5" width="92.029" height="117" fill="none"/>
    </g>
    <line id="Line_35" data-name="Line 35" x2="92.029" transform="translate(637.5 406.5)" fill="none" stroke="#fff" stroke-width="1"/>
    <line id="Line_36" data-name="Line 36" x2="92.029" transform="translate(637.5 419.5)" fill="none" stroke="#fff" stroke-width="1"/>
    <line id="Line_37" data-name="Line 37" x2="92.029" transform="translate(637.5 432.5)" fill="none" stroke="#fff" stroke-width="1"/>
    <line id="Line_38" data-name="Line 38" x2="92.029" transform="translate(637.5 471.5)" fill="none" stroke="#fff" stroke-width="1"/>
    <line id="Line_39" data-name="Line 39" x2="92.029" transform="translate(637.5 445.5)" fill="none" stroke="#fff" stroke-width="1"/>
    <line id="Line_40" data-name="Line 40" x2="92.029" transform="translate(637.5 484.5)" fill="none" stroke="#fff" stroke-width="1"/>
    <line id="Line_41" data-name="Line 41" x2="92.029" transform="translate(637.5 458.5)" fill="none" stroke="#fff" stroke-width="1"/>
    <line id="Line_42" data-name="Line 42" x2="92.029" transform="translate(637.5 497.5)" fill="none" stroke="#fff" stroke-width="1"/>
    <g id="Rectangle_47" data-name="Rectangle 47" transform="translate(729 445)" fill="none" stroke="#fff" stroke-width="1">
      <rect width="93.029" height="40" stroke="none"/>
      <rect x="0.5" y="0.5" width="92.029" height="39" fill="none"/>
    </g>
    <line id="Line_43" data-name="Line 43" x2="92.029" transform="translate(729.5 458.5)" fill="none" stroke="#fff" stroke-width="1"/>
    <line id="Line_44" data-name="Line 44" x2="92.029" transform="translate(729.5 471.5)" fill="none" stroke="#fff" stroke-width="1"/>
    <rect id="Rectangle_48" data-name="Rectangle 48" width="92" height="13" transform="translate(637 446)" fill="rgba(255,255,255,0.29)"/>
    <rect id="Rectangle_49" data-name="Rectangle 49" width="52" height="37" transform="translate(638 356)" fill="rgba(255,255,255,0.29)"/>
    <path id="Icon_material-date-range" data-name="Icon material-date-range" d="M10.542,12.063H8.528v2.014h2.014Zm4.028,0H12.556v2.014H14.57Zm4.028,0H16.584v2.014H18.6Zm2.014-7.049H19.6V3H17.591V5.014H9.535V3H7.521V5.014H6.514a2,2,0,0,0-2,2.014l-.01,14.1a2.013,2.013,0,0,0,2.014,2.014h14.1a2.02,2.02,0,0,0,2.014-2.014V7.028A2.02,2.02,0,0,0,20.612,5.014Zm0,16.112H6.514V10.049h14.1Z" transform="translate(1352.375 360.861)" fill="#fff"/>
    <line id="Line_45" data-name="Line 45" y2="46" transform="translate(1366.5 385.5)" fill="none" stroke="#fff" stroke-width="1"/>
    <line id="Line_46" data-name="Line 46" x1="10" y2="9" transform="translate(1356.5 431.5)" fill="none" stroke="#fff" stroke-width="1"/>
    <text id="Date_Range" data-name="Date Range" transform="translate(1279 446)" fill="#fff" font-size="14" font-family="OpenSans-Light, Open Sans" font-weight="300"><tspan x="0" y="0">Date Range</tspan></text>
    <g id="Rectangle_50" data-name="Rectangle 50" transform="translate(1065 392)" fill="none" stroke="#fff" stroke-width="1">
      <rect width="93.029" height="94" stroke="none"/>
      <rect x="0.5" y="0.5" width="92.029" height="93" fill="none"/>
    </g>
    <line id="Line_47" data-name="Line 47" x2="92.029" transform="translate(1065.5 406.5)" fill="none" stroke="#fff" stroke-width="1"/>
    <line id="Line_48" data-name="Line 48" x2="92.029" transform="translate(1065.5 419.5)" fill="none" stroke="#fff" stroke-width="1"/>
    <line id="Line_49" data-name="Line 49" x2="92.029" transform="translate(1065.5 432.5)" fill="none" stroke="#fff" stroke-width="1"/>
    <g id="Rectangle_51" data-name="Rectangle 51" transform="translate(973 432)" fill="none" stroke="#fff" stroke-width="1">
      <rect width="93.029" height="27" stroke="none"/>
      <rect x="0.5" y="0.5" width="92.029" height="26" fill="none"/>
    </g>
    <line id="Line_50" data-name="Line 50" x2="92.029" transform="translate(973.5 445.5)" fill="none" stroke="#fff" stroke-width="1"/>
    <rect id="Rectangle_52" data-name="Rectangle 52" width="92" height="13" transform="translate(1066 433)" fill="rgba(255,255,255,0.29)"/>
    <rect id="Rectangle_53" data-name="Rectangle 53" width="52" height="37" transform="translate(1106 356)" fill="rgba(255,255,255,0.29)"/>
    <line id="Line_51" data-name="Line 51" x2="92.029" transform="translate(1065.5 445.5)" fill="none" stroke="#fff" stroke-width="1"/>
    <line id="Line_52" data-name="Line 52" x2="92.029" transform="translate(1065.5 458.5)" fill="none" stroke="#fff" stroke-width="1"/>
    <line id="Line_53" data-name="Line 53" x2="92.029" transform="translate(1065.5 471.5)" fill="none" stroke="#fff" stroke-width="1"/>
    <line id="Line_54" data-name="Line 54" y1="34" x2="35" transform="translate(599.5 400.5)" fill="none" stroke="#fff" stroke-width="1"/>
    <line id="Line_55" data-name="Line 55" y2="32" transform="translate(599.5 433.5)" fill="none" stroke="#fff" stroke-width="1"/>
    <text id="Dropdown_Align_Left" data-name="Dropdown
Align Left" transform="translate(538 481)" fill="#fff" font-size="14" font-family="OpenSans-Light, Open Sans" font-weight="300"><tspan x="0" y="0">Dropdown</tspan><tspan x="0" y="19">Align Left</tspan></text>
    <line id="Line_56" data-name="Line 56" x1="30" y1="27" transform="translate(804.5 489.5)" fill="none" stroke="#fff" stroke-width="1"/>
    <line id="Line_57" data-name="Line 57" y2="32" transform="translate(834.5 515.5)" fill="none" stroke="#fff" stroke-width="1"/>
    <text id="Dropdown_Submenu_Open_Right" data-name="Dropdown Submenu
Open Right" transform="translate(773 563)" fill="#fff" font-size="14" font-family="OpenSans-Light, Open Sans" font-weight="300"><tspan x="0" y="0">Dropdown Submenu</tspan><tspan x="0" y="19">Open Right</tspan></text>
    <line id="Line_58" data-name="Line 58" x1="58" y1="39" transform="translate(1164.5 400.5)" fill="none" stroke="#fff" stroke-width="1"/>
    <line id="Line_59" data-name="Line 59" y2="13" transform="translate(1222.5 439.5)" fill="none" stroke="#fff" stroke-width="1"/>
    <text id="Dropdown_Align_Right" data-name="Dropdown
Align Right" transform="translate(1179 469)" fill="#fff" font-size="14" font-family="OpenSans-Light, Open Sans" font-weight="300"><tspan x="0" y="0">Dropdown</tspan><tspan x="0" y="19">Align Right</tspan></text>
    <line id="Line_60" data-name="Line 60" y1="26" x2="20" transform="translate(1005.5 462.5)" fill="none" stroke="#fff" stroke-width="1"/>
    <line id="Line_61" data-name="Line 61" y2="32" transform="translate(1005.5 487.5)" fill="none" stroke="#fff" stroke-width="1"/>
    <text id="Dropdown_Submenu_Open_Left" data-name="Dropdown Submenu
Open Left" transform="translate(973 535)" fill="#fff" font-size="14" font-family="OpenSans-Light, Open Sans" font-weight="300"><tspan x="0" y="0">Dropdown Submenu</tspan><tspan x="0" y="19">Open Left</tspan></text>
  </g>
</svg>
