<svg xmlns="http://www.w3.org/2000/svg" width="280" height="150" viewBox="0 0 280 150">
  <g id="Group_1" data-name="Group 1" transform="translate(-820 -467)">
    <g id="Group_1-2" data-name="Group 1" transform="translate(1 2)">
      <g id="Group_1-3" data-name="Group 1" transform="translate(809 390)">
        <g id="Rectangle_1" data-name="Rectangle 1" transform="translate(10 75)" fill="none" stroke="#fff" stroke-width="1">
          <rect width="280" height="150" stroke="none"/>
          <rect x="0.5" y="0.5" width="279" height="149" fill="none"/>
        </g>
        <g id="Rectangle_2" data-name="Rectangle 2" transform="translate(16 92.995)" fill="none" stroke="#fff" stroke-width="1">
          <rect width="40" height="127" stroke="none"/>
          <rect x="0.5" y="0.5" width="39" height="126" fill="none"/>
        </g>
        <g id="Rectangle_3" data-name="Rectangle 3" transform="translate(60.867 92.995)">
          <path id="Path_1" data-name="Path 1" d="M0,0H223V127H0Z" fill="none"/>
          <path id="Path_2" data-name="Path 2" d="M1,1V126.005H222V1H1M0,0H223V127.005H0Z" fill="#fff"/>
        </g>
        <g id="Rectangle_2-2" data-name="Rectangle 2" transform="translate(16 78.995)" fill="none" stroke="#fff" stroke-width="1">
          <rect width="268" height="12" stroke="none"/>
          <rect x="0.5" y="0.5" width="267" height="11" fill="none"/>
        </g>
        <path id="Path_1-2" data-name="Path 1" d="M0,0H39" transform="translate(16.5 102.5)" fill="none" stroke="#fff" stroke-width="1"/>
        <path id="Path_8" data-name="Path 8" d="M0,0H39" transform="translate(16.5 134.5)" fill="none" stroke="#fff" stroke-width="1"/>
        <path id="Path_4" data-name="Path 4" d="M0,0H39" transform="translate(16.5 118.5)" fill="none" stroke="#fff" stroke-width="1"/>
        <path id="Path_6" data-name="Path 6" d="M0,0H39" transform="translate(16.5 150.5)" fill="none" stroke="#fff" stroke-width="1"/>
        <path id="Path_2-2" data-name="Path 2" d="M0,0H39" transform="translate(16.5 110.5)" fill="none" stroke="#fff" stroke-width="1"/>
        <path id="Path_7" data-name="Path 7" d="M0,0H39" transform="translate(16.5 142.5)" fill="none" stroke="#fff" stroke-width="1"/>
        <path id="Path_3" data-name="Path 3" d="M0,0H39" transform="translate(16.5 126.5)" fill="none" stroke="#fff" stroke-width="1"/>
        <path id="Path_5" data-name="Path 5" d="M0,0H39" transform="translate(16.5 158.5)" fill="none" stroke="#fff" stroke-width="1"/>
      </g>
    </g>
    <rect id="Rectangle_1-2" data-name="Rectangle 1" width="4" height="4" transform="translate(830 488)" fill="rgba(255,255,255,0.32)"/>
    <rect id="Rectangle_4" data-name="Rectangle 4" width="4" height="3.011" transform="translate(830 497)" fill="rgba(255,255,255,0.32)"/>
    <rect id="Rectangle_6" data-name="Rectangle 6" width="4" height="3.011" transform="translate(830 505)" fill="rgba(255,255,255,0.32)"/>
    <rect id="Rectangle_8" data-name="Rectangle 8" width="4" height="3.011" transform="translate(830 513)" fill="rgba(255,255,255,0.32)"/>
    <rect id="Rectangle_10" data-name="Rectangle 10" width="4" height="3.011" transform="translate(830 521)" fill="rgba(255,255,255,0.32)"/>
    <rect id="Rectangle_12" data-name="Rectangle 12" width="4" height="3.011" transform="translate(830 529)" fill="rgba(255,255,255,0.32)"/>
    <rect id="Rectangle_14" data-name="Rectangle 14" width="4" height="3.011" transform="translate(830 537)" fill="rgba(255,255,255,0.32)"/>
    <rect id="Rectangle_16" data-name="Rectangle 16" width="4" height="3.011" transform="translate(830 545)" fill="rgba(255,255,255,0.32)"/>
    <rect id="Rectangle_2-3" data-name="Rectangle 2" width="27" height="2" transform="translate(835 489)" fill="rgba(255,255,255,0.32)"/>
    <rect id="Rectangle_3-2" data-name="Rectangle 3" width="27" height="2" transform="translate(835 497.505)" fill="rgba(255,255,255,0.32)"/>
    <rect id="Rectangle_5" data-name="Rectangle 5" width="27" height="2" transform="translate(835 505.505)" fill="rgba(255,255,255,0.32)"/>
    <rect id="Rectangle_7" data-name="Rectangle 7" width="27" height="2" transform="translate(835 513.505)" fill="rgba(255,255,255,0.32)"/>
    <rect id="Rectangle_9" data-name="Rectangle 9" width="27" height="2" transform="translate(835 521.505)" fill="rgba(255,255,255,0.32)"/>
    <rect id="Rectangle_11" data-name="Rectangle 11" width="27" height="2" transform="translate(835 529.505)" fill="rgba(255,255,255,0.32)"/>
    <rect id="Rectangle_13" data-name="Rectangle 13" width="27" height="2" transform="translate(835 537.505)" fill="rgba(255,255,255,0.32)"/>
    <rect id="Rectangle_15" data-name="Rectangle 15" width="27" height="2" transform="translate(835 545.505)" fill="rgba(255,255,255,0.32)"/>
  </g>
</svg>
