<svg xmlns="http://www.w3.org/2000/svg" width="280" height="150" viewBox="0 0 280 150">
  <g id="Group_1" data-name="Group 1" transform="translate(-10 -75)">
    <g id="Rectangle_1" data-name="Rectangle 1" transform="translate(10 75)" fill="none" stroke="#fff" stroke-width="1">
      <rect width="280" height="150" stroke="none"/>
      <rect x="0.5" y="0.5" width="279" height="149" fill="none"/>
    </g>
    <g id="Rectangle_2" data-name="Rectangle 2" transform="translate(20 85)" fill="none" stroke="#fff" stroke-width="1">
      <rect width="260" height="12" stroke="none"/>
      <rect x="0.5" y="0.5" width="259" height="11" fill="none"/>
    </g>
    <g id="Rectangle_3" data-name="Rectangle 3" transform="translate(20 100)" fill="none" stroke="#fff" stroke-width="1">
      <rect width="128" height="122" stroke="none"/>
      <rect x="0.5" y="0.5" width="127" height="121" fill="none"/>
    </g>
    <g id="Rectangle_5" data-name="Rectangle 5" transform="translate(30 110)" fill="none" stroke="#fff" stroke-width="1">
      <rect width="107" height="31" stroke="none"/>
      <rect x="0.5" y="0.5" width="106" height="30" fill="none"/>
    </g>
    <g id="Rectangle_8" data-name="Rectangle 8" transform="translate(163 146)" fill="none" stroke="#fff" stroke-width="1">
      <rect width="107" height="31" stroke="none"/>
      <rect x="0.5" y="0.5" width="106" height="30" fill="none"/>
    </g>
    <g id="Rectangle_6" data-name="Rectangle 6" transform="translate(30 146)" fill="none" stroke="#fff" stroke-width="1">
      <rect width="107" height="31" stroke="none"/>
      <rect x="0.5" y="0.5" width="106" height="30" fill="none"/>
    </g>
    <g id="Rectangle_7" data-name="Rectangle 7" transform="translate(30 182)" fill="none" stroke="#fff" stroke-width="1">
      <rect width="107" height="31" stroke="none"/>
      <rect x="0.5" y="0.5" width="106" height="30" fill="none"/>
    </g>
    <g id="Rectangle_4" data-name="Rectangle 4" transform="translate(152 100)" fill="none" stroke="#fff" stroke-width="1">
      <rect width="128" height="122" stroke="none"/>
      <rect x="0.5" y="0.5" width="127" height="121" fill="none"/>
    </g>
    <line id="Line_1" data-name="Line 1" y2="11" transform="translate(44.5 85.5)" fill="none" stroke="#fff" stroke-width="1"/>
    <line id="Line_2" data-name="Line 2" y2="11" transform="translate(68.5 85.5)" fill="none" stroke="#fff" stroke-width="1"/>
    <line id="Line_3" data-name="Line 3" y2="11" transform="translate(92.5 85.5)" fill="none" stroke="#fff" stroke-width="1"/>
    <line id="Line_4" data-name="Line 4" y2="11" transform="translate(116.5 85.5)" fill="none" stroke="#fff" stroke-width="1"/>
    <line id="Line_5" data-name="Line 5" y2="11" transform="translate(140.5 85.5)" fill="none" stroke="#fff" stroke-width="1"/>
    <path id="Path_1" data-name="Path 1" d="M124.289,125.479c42.7-3.162,48.579,34.464,48.579,34.464" transform="translate(0 -3.444)" fill="none" stroke="#fff" stroke-width="1"/>
  </g>
</svg>
