<svg xmlns="http://www.w3.org/2000/svg" width="280" height="150" viewBox="0 0 280 150">
  <g id="Group_1" data-name="Group 1" transform="translate(-820 -467)">
    <g id="Rectangle_1" data-name="Rectangle 1" transform="translate(820 467)" fill="none" stroke="#fff" stroke-width="1">
      <rect width="280" height="150" stroke="none"/>
      <rect x="0.5" y="0.5" width="279" height="149" fill="none"/>
    </g>
    <g id="Rectangle_2" data-name="Rectangle 2" transform="translate(1067 484.995)" fill="none" stroke="#fff" stroke-width="1">
      <rect width="26.81" height="127" stroke="none"/>
      <rect x="0.5" y="0.5" width="25.81" height="126" fill="none"/>
    </g>
    <g id="Rectangle_3" data-name="Rectangle 3" transform="translate(856.991 484.995)">
      <path id="Path_1" data-name="Path 1" d="M0,0H236.876V127H0Z" fill="none"/>
      <path id="Path_2" data-name="Path 2" d="M1.062,1V126H235.813V1H1.062M0,0H236.876V127H0Z" transform="translate(-31)" fill="#fff"/>
    </g>
    <g id="Rectangle_2-2" data-name="Rectangle 2" transform="translate(826 470.995)" fill="none" stroke="#fff" stroke-width="1">
      <rect width="268" height="12" stroke="none"/>
      <rect x="0.5" y="0.5" width="267" height="11" fill="none"/>
    </g>
    <path id="Path_1-2" data-name="Path 1" d="M0,0H25.81" transform="translate(1067.5 504.5)" fill="none" stroke="#fff" stroke-width="1"/>
    <path id="Path_4" data-name="Path 4" d="M0,0H25.81" transform="translate(1067.5 540.5)" fill="none" stroke="#fff" stroke-width="1"/>
    <path id="Path_2-2" data-name="Path 2" d="M0,0H25.81" transform="translate(1067.5 522.5)" fill="none" stroke="#fff" stroke-width="1"/>
    <path id="Path_3" data-name="Path 3" d="M0,0H25.81" transform="translate(1067.5 558.5)" fill="none" stroke="#fff" stroke-width="1"/>
    <path id="Line_1" data-name="Line 1" d="M0,0V117" transform="translate(833.5 489.5)" fill="none" stroke="#fff" stroke-width="1"/>
    <rect id="Rectangle_1-2" data-name="Rectangle 1" width="6" height="6" transform="translate(1078 490)" fill="rgba(255,255,255,0.19)"/>
    <rect id="Rectangle_2-3" data-name="Rectangle 2" width="6" height="6" transform="translate(1078 509)" fill="rgba(255,255,255,0.19)"/>
    <rect id="Rectangle_3-2" data-name="Rectangle 3" width="6" height="6" transform="translate(1078 527)" fill="rgba(255,255,255,0.19)"/>
    <rect id="Rectangle_4" data-name="Rectangle 4" width="6" height="6" transform="translate(1078 544)" fill="rgba(255,255,255,0.19)"/>
    <rect id="Rectangle_5" data-name="Rectangle 5" width="17" height="2" transform="translate(1072 498)" fill="rgba(255,255,255,0.19)"/>
    <rect id="Rectangle_6" data-name="Rectangle 6" width="17" height="2" transform="translate(1072 517)" fill="rgba(255,255,255,0.19)"/>
    <rect id="Rectangle_7" data-name="Rectangle 7" width="17" height="2" transform="translate(1072 535)" fill="rgba(255,255,255,0.19)"/>
    <rect id="Rectangle_8" data-name="Rectangle 8" width="17" height="2" transform="translate(1072 552)" fill="rgba(255,255,255,0.19)"/>
  </g>
</svg>
