<svg xmlns="http://www.w3.org/2000/svg" width="280" height="150" viewBox="0 0 280 150">
  <g id="Group_1" data-name="Group 1" transform="translate(-10 -75)">
    <g id="Rectangle_1" data-name="Rectangle 1" transform="translate(10 75)" fill="none" stroke="#fff" stroke-width="1">
      <rect width="280" height="150" stroke="none"/>
      <rect x="0.5" y="0.5" width="279" height="149" fill="none"/>
    </g>
    <g id="Rectangle_2" data-name="Rectangle 2" transform="translate(20 85)" fill="none" stroke="#fff" stroke-width="1">
      <rect width="260" height="12" stroke="none"/>
      <rect x="0.5" y="0.5" width="259" height="11" fill="none"/>
    </g>
    <g id="Rectangle_3" data-name="Rectangle 3" transform="translate(20 100)" fill="none" stroke="#fff" stroke-width="1">
      <rect width="128" height="15" stroke="none"/>
      <rect x="0.5" y="0.5" width="127" height="14" fill="none"/>
    </g>
    <g id="Rectangle_6" data-name="Rectangle 6" transform="translate(152 100)" fill="none" stroke="#fff" stroke-width="1">
      <rect width="128" height="15" stroke="none"/>
      <rect x="0.5" y="0.5" width="127" height="14" fill="none"/>
    </g>
    <g id="Rectangle_5" data-name="Rectangle 5" transform="translate(20 100)" fill="none" stroke="#fff" stroke-width="1">
      <rect width="128" height="122" stroke="none"/>
      <rect x="0.5" y="0.5" width="127" height="121" fill="none"/>
    </g>
    <g id="Rectangle_7" data-name="Rectangle 7" transform="translate(152 100)" fill="none" stroke="#fff" stroke-width="1">
      <rect width="128" height="122" stroke="none"/>
      <rect x="0.5" y="0.5" width="127" height="121" fill="none"/>
    </g>
    <line id="Line_1" data-name="Line 1" y2="11" transform="translate(159.5 85.5)" fill="none" stroke="#fff" stroke-width="1"/>
    <line id="Line_2" data-name="Line 2" y2="11" transform="translate(183.5 85.5)" fill="none" stroke="#fff" stroke-width="1"/>
    <line id="Line_3" data-name="Line 3" y2="11" transform="translate(207.5 85.5)" fill="none" stroke="#fff" stroke-width="1"/>
    <line id="Line_4" data-name="Line 4" y2="11" transform="translate(231.5 85.5)" fill="none" stroke="#fff" stroke-width="1"/>
    <line id="Line_5" data-name="Line 5" y2="11" transform="translate(255.5 85.5)" fill="none" stroke="#fff" stroke-width="1"/>
    <rect id="Rectangle_8" data-name="Rectangle 8" width="6" height="6" transform="translate(43 105)" fill="#fff"/>
    <rect id="Rectangle_13" data-name="Rectangle 13" width="6" height="6" transform="translate(191 105)" fill="#fff"/>
    <rect id="Rectangle_9" data-name="Rectangle 9" width="6" height="6" transform="translate(35 105)" fill="#fff"/>
    <rect id="Rectangle_12" data-name="Rectangle 12" width="6" height="6" transform="translate(183 105)" fill="#fff"/>
    <rect id="Rectangle_10" data-name="Rectangle 10" width="6" height="6" transform="translate(27 105)" fill="#fff"/>
    <rect id="Rectangle_11" data-name="Rectangle 11" width="6" height="6" transform="translate(175 105)" fill="#fff"/>
    <rect id="Rectangle_14" data-name="Rectangle 14" width="6" height="6" transform="translate(167 105)" fill="#fff"/>
    <rect id="Rectangle_15" data-name="Rectangle 15" width="6" height="6" transform="translate(159 105)" fill="#fff"/>
  </g>
</svg>
